# xmcd CD database file
#
# Track frame offsets:
#	182
#	12637
#	24405
#	36402
#	49892
#	61095
#	73245
#	85580
#	99522
#	112752
#
# Disc length: 1645 seconds
#
# Revision: 2
# Processed by: cddbd v1.4b41PL1 Copyright (c) Steve Scherf et al.
# Submitted via: Feurio! 1.50.2ß - http://www.feurio.com
#
DISCID=7c066b0a
DTITLE=Jerry Butler - For Your Precious Love
DYEAR=1900
DGENRE=
TTITLE0=For Your Precious Love
TTITLE1=Good Times
TTITLE2=Just For You
TTITLE3=A Lonely Soldier
TTITLE4=Lost
TTITLE5=Moon River
TTITLE6=You Can Run (But You Can't Hide)
TTITLE7=I Don't Want To Hear It Anymore
TTITLE8=Smile (with Betty Everett)
TTITLE9=I'm A Telling You
EXTD=
EXTT0=
EXTT1=
EXTT2=
EXTT3=
EXTT4=
EXTT5=
EXTT6=
EXTT7=
EXTT8=
EXTT9=
PLAYORDER=
